<?xml version="1.0" encoding="UTF-8" standalone="no"?>
<!-- Created with Inkscape (http://www.inkscape.org/) -->

<svg
   xmlns:dc="http://purl.org/dc/elements/1.1/"
   xmlns:cc="http://creativecommons.org/ns#"
   xmlns:rdf="http://www.w3.org/1999/02/22-rdf-syntax-ns#"
   xmlns:svg="http://www.w3.org/2000/svg"
   xmlns="http://www.w3.org/2000/svg"
   xmlns:sodipodi="http://sodipodi.sourceforge.net/DTD/sodipodi-0.dtd"
   xmlns:inkscape="http://www.inkscape.org/namespaces/inkscape"
   width="614.43597"
   height="216.52788"
   id="svg5390"
   version="1.1"
   inkscape:version="0.48.4 r9939"
   sodipodi:docname="automate-workflow.svg">
  <defs
     id="defs5392">
    <clipPath
       clipPathUnits="userSpaceOnUse"
       id="clipPath3647">
      <path
         inkscape:connector-curvature="0"
         d="M 0,0 800,0 800,1800 0,1800 0,0 z"
         id="path3649" />
    </clipPath>
  </defs>
  <sodipodi:namedview
     id="base"
     pagecolor="#ffffff"
     bordercolor="#666666"
     borderopacity="1.0"
     inkscape:pageopacity="0.0"
     inkscape:pageshadow="2"
     inkscape:zoom="0.35"
     inkscape:cx="342.218"
     inkscape:cy="2.551423"
     inkscape:document-units="px"
     inkscape:current-layer="layer1"
     showgrid="false"
     inkscape:window-width="1824"
     inkscape:window-height="1051"
     inkscape:window-x="-9"
     inkscape:window-y="-9"
     inkscape:window-maximized="1"
     fit-margin-top="0"
     fit-margin-left="0"
     fit-margin-right="0"
     fit-margin-bottom="0" />
  <metadata
     id="metadata5395">
    <rdf:RDF>
      <cc:Work
         rdf:about="">
        <dc:format>image/svg+xml</dc:format>
        <dc:type
           rdf:resource="http://purl.org/dc/dcmitype/StillImage" />
        <dc:title></dc:title>
      </cc:Work>
    </rdf:RDF>
  </metadata>
  <g
     inkscape:label="Layer 1"
     inkscape:groupmode="layer"
     id="layer1"
     transform="translate(-32.781999,-318.38573)">
    <g
       transform="matrix(1.25,0,0,-1.25,-149.73938,889.21321)"
       id="g5119">
      <g
         transform="matrix(-1,0,0,1,161.32513,377.11128)"
         id="g4080">
        <g
           id="g4053"
           transform="translate(-203.371,-377.1113)">
          <g
             transform="translate(165.7502,387.7328)"
             id="g3679">
            <path
               inkscape:connector-curvature="0"
               id="path3681"
               style="fill:#858cad;fill-opacity:1;fill-rule:nonzero;stroke:none"
               d="m 0,0 c -9.254,0 -16.766,-7.435 -16.9,-16.657 l 33.8,0 C 16.767,-7.435 9.254,0 0,0" />
          </g>
          <g
             transform="translate(207.5468,427.4994)"
             id="g3675">
            <path
               inkscape:connector-curvature="0"
               id="path3677"
               style="fill:#b591bd;fill-opacity:1;fill-rule:nonzero;stroke:none"
               d="m 0,0 c -0.379,0 -0.578,-0.745 -0.527,-2.425 0.172,-5.682 -0.523,-10.313 -2.791,-14.977 2.514,-9.023 4.428,-18.871 3.556,-23.529 -0.452,-2.415 -2.057,-5.952 -4.414,-9.457 l 2.135,0 c -0.061,-4.206 -1.333,-8.119 -3.483,-11.405 8.304,3.254 15.416,14.671 16.446,20.174 C 12.718,-32.017 2.486,0.002 0,0" />
          </g>
          <g
             transform="translate(166.0509,381.0841)"
             id="g3683">
            <path
               inkscape:connector-curvature="0"
               id="path3685"
               style="fill:#d6d6d6;fill-opacity:1;fill-rule:nonzero;stroke:none"
               d="m 0,0 c 0,-0.946 -0.767,-1.713 -1.713,-1.713 -0.946,0 -1.713,0.767 -1.713,1.713 0,0.946 0.767,1.713 1.713,1.713 C -0.767,1.713 0,0.946 0,0" />
          </g>
          <g
             transform="translate(146.0171,372.8937)"
             id="g3687">
            <path
               inkscape:connector-curvature="0"
               id="path3689"
               style="fill:#b591bd;fill-opacity:1;fill-rule:nonzero;stroke:none"
               d="m 0,0 c 0,-4.305 3.459,-7.8 7.75,-7.862 l 0,15.725 C 3.459,7.801 0,4.305 0,0" />
          </g>
          <g
             transform="translate(184.0876,356)"
             id="g3691">
            <path
               inkscape:connector-curvature="0"
               id="path3693"
               style="fill:#858cad;fill-opacity:1;fill-rule:nonzero;stroke:none"
               d="m 0,0 c 11.728,0 21.249,9.423 21.418,21.111 l -42.837,0 C -21.25,9.423 -11.728,0 0,0" />
          </g>
          <path
             inkscape:connector-curvature="0"
             id="path3697"
             style="fill:#b591bd;fill-opacity:1;fill-rule:nonzero;stroke:none"
             d="m 196.6838,428.8696 c -0.385,0 -0.588,-0.757 -0.536,-2.465 0.368,-12.136 -3.155,-19.547 -17.224,-32.49 -2.598,-2.39 -4.313,-5.223 -5.219,-8.167 3.495,-1.868 6.255,-4.927 7.741,-8.636 l 2.991,0 c -0.964,5.408 0.746,11.497 5.637,15.997 7.254,6.674 11.658,11.852 14.155,16.989 -2.752,9.881 -6.224,18.773 -7.545,18.772" />
        </g>
        <g
           id="g3699"
           transform="translate(0.858096,32.98622)">
          <path
             d="m 0,0 c -2.497,-5.137 -6.901,-10.315 -14.155,-16.989 -4.891,-4.5 -6.602,-10.589 -5.638,-15.997 l 18.935,0 c 2.357,3.505 3.962,7.041 4.414,9.457 C 4.427,-18.871 2.514,-9.023 0,0"
             style="fill:#80528c;fill-opacity:1;fill-rule:nonzero;stroke:none"
             id="path3701"
             inkscape:connector-curvature="0" />
        </g>
        <path
           d="m 0,0 -18.934,0 -2.991,0 -8.145,0 c 1.085,-5.097 4.535,-9.521 9.929,-11.381 1.121,-0.386 2.246,-0.564 3.366,-0.564 6.46,0 12.727,5.926 16.775,11.945"
           style="fill:#96789e;fill-opacity:1;fill-rule:nonzero;stroke:none"
           id="path3709"
           inkscape:connector-curvature="0" />
      </g>
      <g
         id="g4990">
        <g
           id="g3643">
          <g
             id="g3645"
             clip-path="url(#clipPath3647)">
            <g
               id="g3651"
               transform="translate(188.9914,337.5149)">
              <path
                 inkscape:connector-curvature="0"
                 d="m 0,0 c 0,0 3.744,-40.515 59.917,-40.515 45.536,0 47.092,16 47.092,24"
                 style="fill:none;stroke:#b591bd;stroke-width:4;stroke-linecap:butt;stroke-linejoin:miter;stroke-miterlimit:10;stroke-opacity:1;stroke-dasharray:none"
                 id="path3653" />
            </g>
          </g>
        </g>
        <g
           id="g4882">
          <g
             id="g4292"
             transform="translate(240.5369,416.58208)">
            <path
               inkscape:connector-curvature="0"
               transform="translate(40.435996,32.13206)"
               d="m 0,0 c -24.684,-6.154 -39.704,-31.153 -33.55,-55.837 6.154,-24.683 31.153,-39.704 55.837,-33.55 24.683,6.155 39.704,31.153 33.55,55.837 C 49.683,-8.866 24.684,6.154 0,0 m 18.242,-73.173 c -15.727,-3.921 -31.657,5.651 -35.578,21.379 -3.922,15.728 5.65,31.658 21.377,35.579 15.731,3.922 31.659,-5.649 35.58,-21.378 3.922,-15.728 -5.648,-31.658 -21.379,-35.58"
               style="fill:#858cad;fill-opacity:1;fill-rule:nonzero;stroke:none"
               id="path3253" />
            <path
               inkscape:connector-curvature="0"
               transform="translate(47.290196,26.7759)"
               d="m 0,0 -8.73,-2.177 -3.317,13.304 8.73,2.177 L 0,0 z"
               style="fill:#858cad;fill-opacity:1;fill-rule:nonzero;stroke:none"
               id="path3257" />
            <path
               inkscape:connector-curvature="0"
               transform="translate(69.5769,-62.61122)"
               d="m 0,0 -8.73,-2.177 -3.317,13.305 8.73,2.176 L 0,0 z"
               style="fill:#858cad;fill-opacity:1;fill-rule:nonzero;stroke:none"
               id="path3261" />
            <path
               inkscape:connector-curvature="0"
               transform="translate(91.9099,-4.95962)"
               d="M 0,0 -2.177,8.731 11.126,12.048 13.303,3.317 0,0 z"
               style="fill:#858cad;fill-opacity:1;fill-rule:nonzero;stroke:none"
               id="path3265" />
            <path
               inkscape:connector-curvature="0"
               transform="translate(1.777996,-29.90538)"
               d="M 0,0 -2.177,8.731 11.127,12.048 13.304,3.317 0,0 z"
               style="fill:#858cad;fill-opacity:1;fill-rule:nonzero;stroke:none"
               id="path3269" />
            <path
               inkscape:connector-curvature="0"
               transform="translate(82.7683,13.61526)"
               d="M 0,0 -6.411,6.313 3.21,16.082 9.621,9.769 0,0 z"
               style="fill:#858cad;fill-opacity:1;fill-rule:nonzero;stroke:none"
               id="path3273" />
            <path
               inkscape:connector-curvature="0"
               transform="translate(18.126196,-52.02082)"
               d="M 0,0 -6.41,6.313 3.21,16.083 9.622,9.768 0,0 z"
               style="fill:#858cad;fill-opacity:1;fill-rule:nonzero;stroke:none"
               id="path3277" />
            <path
               inkscape:connector-curvature="0"
               transform="translate(77.824204,-41.93194)"
               d="M 0,0 6.313,6.411 16.083,-3.21 9.767,-9.623 0,0 z"
               style="fill:#858cad;fill-opacity:1;fill-rule:nonzero;stroke:none"
               id="path3281" />
            <path
               inkscape:connector-curvature="0"
               transform="translate(12.187996,22.7095)"
               d="M 0,0 6.313,6.411 16.083,-3.21 9.768,-9.621 0,0 z"
               style="fill:#858cad;fill-opacity:1;fill-rule:nonzero;stroke:none"
               id="path3285" />
            <path
               inkscape:connector-curvature="0"
               transform="translate(65.286604,24.2107)"
               d="M 0,0 -8.814,1.811 -6.053,15.242 2.76,13.431 0,0 z"
               style="fill:#858cad;fill-opacity:1;fill-rule:nonzero;stroke:none"
               id="path3289" />
            <path
               inkscape:connector-curvature="0"
               transform="translate(43.1115,-62.94218)"
               d="M 0,0 -8.813,1.81 -6.053,15.241 2.761,13.429 0,0 z"
               style="fill:#858cad;fill-opacity:1;fill-rule:nonzero;stroke:none"
               id="path3293" />
            <path
               inkscape:connector-curvature="0"
               transform="translate(88.9179,-22.2637)"
               d="M 0,0 2.831,8.542 15.847,4.228 13.013,-4.315 0,0 z"
               style="fill:#858cad;fill-opacity:1;fill-rule:nonzero;stroke:none"
               id="path3297" />
            <path
               inkscape:connector-curvature="0"
               d="M 0,0 2.831,8.542 15.847,4.228 13.014,-4.313 0,0 z"
               style="fill:#858cad;fill-opacity:1;fill-rule:nonzero;stroke:none"
               id="path3301" />
          </g>
          <g
             id="g4775">
            <g
               id="g3351"
               transform="translate(324.4126,354.2564)">
              <g
                 id="g4264">
                <path
                   inkscape:connector-curvature="0"
                   id="path3313"
                   style="fill:#858cad;fill-opacity:1;fill-rule:nonzero;stroke:none"
                   d="m 0,0 c -20.152,0 -36.487,-16.335 -36.487,-36.487 0,-20.151 16.335,-36.487 36.487,-36.487 20.151,0 36.486,16.336 36.486,36.487 C 36.486,-16.335 20.151,0 0,0 m -0.002,-59.736 c -12.84,0 -23.249,10.409 -23.249,23.249 0,12.841 10.409,23.25 23.249,23.25 12.842,0 23.251,-10.409 23.251,-23.25 0,-12.84 -10.409,-23.249 -23.251,-23.249"
                   transform="translate(37.237296,16.9476)" />
                <path
                   inkscape:connector-curvature="0"
                   id="path3315"
                   style="fill:#858cad;fill-opacity:1;fill-rule:nonzero;stroke:none"
                   d="m 365.893,368.839 -7.127,0 0,10.861 7.127,0 0,-10.861 z"
                   transform="translate(-324.4126,-354.2564)" />
                <path
                   inkscape:connector-curvature="0"
                   id="path3317"
                   style="fill:#858cad;fill-opacity:1;fill-rule:nonzero;stroke:none"
                   d="m 365.891,292.8 -7.127,0 0,10.861 7.127,0 0,-10.861 z"
                   transform="translate(-324.4126,-354.2564)" />
                <path
                   inkscape:connector-curvature="0"
                   id="path3319"
                   style="fill:#858cad;fill-opacity:1;fill-rule:nonzero;stroke:none"
                   d="m 392.705,339.978 10.861,0 0,-7.128 -10.861,0 0,7.128 z"
                   transform="translate(-324.4126,-354.2564)" />
                <path
                   inkscape:connector-curvature="0"
                   id="path3321"
                   style="fill:#858cad;fill-opacity:1;fill-rule:nonzero;stroke:none"
                   d="m 320.766,339.5 10.862,0 0,-7.128 -10.862,0 0,7.128 z"
                   transform="translate(-324.4126,-354.2564)" />
                <path
                   inkscape:connector-curvature="0"
                   id="path3325"
                   style="fill:#858cad;fill-opacity:1;fill-rule:nonzero;stroke:none"
                   d="M 0,0 -3.717,6.082 5.55,11.746 9.267,5.664 0,0 z"
                   transform="translate(66.2246,-5.39648)" />
                <path
                   inkscape:connector-curvature="0"
                   id="path3329"
                   style="fill:#858cad;fill-opacity:1;fill-rule:nonzero;stroke:none"
                   d="M 0,0 -3.717,6.081 5.549,11.746 9.267,5.664 0,0 z"
                   transform="translate(3.962904,-43.45672)" />
                <path
                   inkscape:connector-curvature="0"
                   id="path3333"
                   style="fill:#858cad;fill-opacity:1;fill-rule:nonzero;stroke:none"
                   d="M 0,0 6.081,3.718 11.746,-5.55 5.663,-9.268 0,0 z"
                   transform="translate(51.9534,-50.27424)" />
                <g
                   transform="translate(13.553496,16.92576)"
                   id="g3335">
                  <path
                     inkscape:connector-curvature="0"
                     id="path3337"
                     style="fill:#858cad;fill-opacity:1;fill-rule:nonzero;stroke:none"
                     d="M 0,0 6.081,3.718 11.746,-5.549 5.665,-9.267 0,0 z" />
                </g>
                <path
                   inkscape:connector-curvature="0"
                   id="path3341"
                   style="fill:#858cad;fill-opacity:1;fill-rule:nonzero;stroke:none"
                   d="M 0,0 -6.427,3.081 -1.731,12.875 4.696,9.794 0,0 z"
                   transform="translate(55.196504,7.94496)" />
                <path
                   inkscape:connector-curvature="0"
                   id="path3345"
                   style="fill:#858cad;fill-opacity:1;fill-rule:nonzero;stroke:none"
                   d="M 0,0 -6.426,3.08 -1.731,12.875 4.696,9.793 0,0 z"
                   transform="translate(23.651896,-57.8572)" />
                <path
                   inkscape:connector-curvature="0"
                   id="path3349"
                   style="fill:#858cad;fill-opacity:1;fill-rule:nonzero;stroke:none"
                   d="M 0,0 3.813,6.023 12.99,0.213 9.176,-5.81 0,0 z"
                   transform="translate(61.655496,-39.03352)" />
                <path
                   inkscape:connector-curvature="0"
                   id="path3353"
                   style="fill:#858cad;fill-opacity:1;fill-rule:nonzero;stroke:none"
                   d="M 0,0 3.813,6.023 12.99,0.213 9.176,-5.809 0,0 z" />
              </g>
            </g>
            <g
               id="g4699">
              <g
                 id="g4672">
                <g
                   transform="translate(413.1661,361.2)"
                   id="g3219">
                  <g
                     id="g4316">
                    <path
                       inkscape:connector-curvature="0"
                       transform="translate(122.1027,-40.58832)"
                       d="M 0,0 0.33,20.188 16.297,9.939 0,0 z"
                       style="fill:#b591bd;fill-opacity:1;fill-rule:nonzero;stroke:none"
                       id="path3201" />
                    <g
                       transform="translate(-8.400004,14.4)"
                       id="g4308">
                      <path
                         inkscape:connector-curvature="0"
                         id="path3197"
                         style="fill:#b591bd;fill-opacity:1;fill-rule:nonzero;stroke:none"
                         d="M 0,0 -0.67,21.188 15.297,10.939 0,0 z"
                         transform="translate(30.6701,49.61168)" />
                      <path
                         inkscape:connector-curvature="0"
                         id="path3217"
                         style="fill:none;stroke:#b591bd;stroke-width:4;stroke-linecap:butt;stroke-linejoin:miter;stroke-miterlimit:10;stroke-opacity:1;stroke-dasharray:none"
                         d="M 0,0 C 0,0 14.4,6 12,28.8 9.6,51.6 24,61.2 33.6,60" />
                    </g>
                    <path
                       inkscape:connector-curvature="0"
                       d="m 0,0 c 0,0 40.8,16.8 51.6,-6 10.8,-22.8 12,-24.008 40.8,-24 21.4,0.006 38.4,0 38.4,0"
                       style="fill:none;stroke:#b591bd;stroke-width:4;stroke-linecap:butt;stroke-linejoin:miter;stroke-miterlimit:10;stroke-opacity:1;stroke-dasharray:none"
                       id="path3221" />
                  </g>
                </g>
                <g
                   id="g4452">
                  <g
                     id="g3203"
                     transform="translate(626.3544,340.1027)">
                    <path
                       inkscape:connector-curvature="0"
                       d="M 0,0 -21.188,0.33 -10.939,16.297 0,0 z"
                       style="fill:#b591bd;fill-opacity:1;fill-rule:nonzero;stroke:none"
                       id="path3205" />
                  </g>
                  <g
                     id="g3223"
                     transform="translate(420.4661,340.8)">
                    <path
                       d="m 0,0 c 0,0 11.9,9.6 25.1,-19.2 13.2,-28.8 21.6,-36 72,-36 50.4,0 85.434,-1.6 95.434,5.4 6.398,4.479 2.966,48.6 2.966,54.6"
                       style="fill:none;stroke:#b591bd;stroke-width:4;stroke-linecap:butt;stroke-linejoin:miter;stroke-miterlimit:10;stroke-opacity:1;stroke-dasharray:none"
                       id="path3225"
                       inkscape:connector-curvature="0" />
                  </g>
                </g>
              </g>
              <g
                 id="g4610">
                <g
                   id="g4476">
                  <path
                     transform="translate(634.3599,427.2)"
                     d="m 0,0 -38.588,0 c 0,0 -3.206,0 -3.206,-2.411 l 0,-53.335 c 0,0 0,-2.411 3.206,-2.411 l 38.588,0 c 0,0 3.206,0 3.206,2.411 l 0,53.335 c 0,0 0,2.411 -3.206,2.411 m -0.112,-50.671 -38.306,0 0,47.71 38.306,0 0,-47.71 z"
                     style="fill:#858cad;fill-opacity:1;fill-rule:nonzero;stroke:none"
                     id="path3241"
                     inkscape:connector-curvature="0" />
                  <g
                     id="g4185">
                    <path
                       inkscape:connector-curvature="0"
                       id="path3749"
                       style="fill:#b591bd;fill-opacity:1;fill-rule:nonzero;stroke:none"
                       d="m 620.6294,410.58512 c -0.115,0 -0.175,-0.225 -0.16,-0.734 0.052,-1.721 -0.158,-3.123 -0.845,-4.535 0.762,-2.732 1.341,-5.713 1.077,-7.124 -0.137,-0.731 -0.623,-1.802 -1.336,-2.863 l 0.646,0 c -0.018,-1.274 -0.404,-2.458 -1.054,-3.453 2.514,0.985 4.667,4.442 4.979,6.108 0.544,2.907 -2.554,12.602 -3.307,12.601" />
                    <path
                       inkscape:connector-curvature="0"
                       id="path3753"
                       style="fill:#858cad;fill-opacity:1;fill-rule:nonzero;stroke:none"
                       d="m 607.9746,398.5448 c -2.802,0 -5.076,-2.251 -5.117,-5.043 l 10.234,0 c -0.041,2.792 -2.315,5.043 -5.117,5.043" />
                    <g
                       id="g3759"
                       transform="translate(602,394.052)">
                      <path
                         d="m 0,0 c 0,-1.303 1.047,-2.362 2.346,-2.38 l 0,4.761 C 1.047,2.362 0,1.303 0,0"
                         style="fill:#b591bd;fill-opacity:1;fill-rule:nonzero;stroke:none"
                         id="path3761"
                         inkscape:connector-curvature="0" />
                    </g>
                    <path
                       inkscape:connector-curvature="0"
                       id="path3757"
                       style="fill:#d6d6d6;fill-opacity:1;fill-rule:nonzero;stroke:none"
                       d="m 608.0657,396.53192 c 0,-0.286 -0.232,-0.519 -0.519,-0.519 -0.286,0 -0.518,0.233 -0.518,0.519 0,0.286 0.232,0.519 0.518,0.519 0.287,0 0.519,-0.233 0.519,-0.519" />
                    <path
                       inkscape:connector-curvature="0"
                       id="path3765"
                       style="fill:#858cad;fill-opacity:1;fill-rule:nonzero;stroke:none"
                       d="m 613.5266,388.93696 c 3.551,0 6.434,2.853 6.485,6.392 l -12.97,0 c 0.051,-3.539 2.934,-6.392 6.485,-6.392" />
                    <path
                       inkscape:connector-curvature="0"
                       id="path3769"
                       style="fill:#b591bd;fill-opacity:1;fill-rule:nonzero;stroke:none"
                       d="m 617.3405,410.99992 c -0.117,0 -0.178,-0.229 -0.162,-0.746 0.111,-3.675 -0.956,-5.919 -5.215,-9.837 -0.787,-0.724 -1.306,-1.582 -1.58,-2.473 1.058,-0.566 1.894,-1.492 2.343,-2.615 l 0.906,0 c -0.292,1.637 0.226,3.481 1.707,4.843 2.196,2.021 3.529,3.589 4.285,5.144 -0.833,2.992 -1.884,5.684 -2.284,5.684" />
                    <path
                       inkscape:connector-curvature="0"
                       id="path3773"
                       style="fill:#80528c;fill-opacity:1;fill-rule:nonzero;stroke:none"
                       d="m 619.6249,405.31632 c -0.756,-1.555 -2.089,-3.123 -4.286,-5.144 -1.48,-1.362 -1.999,-3.206 -1.707,-4.843 l 5.733,0 c 0.714,1.061 1.2,2.132 1.337,2.863 0.264,1.41 -0.316,4.392 -1.077,7.124" />
                    <path
                       inkscape:connector-curvature="0"
                       id="path3781"
                       style="fill:#96789e;fill-opacity:1;fill-rule:nonzero;stroke:none"
                       d="m 619.3651,395.329 -5.733,0 -0.905,0 -2.466,0 c 0.328,-1.543 1.373,-2.883 3.006,-3.446 0.339,-0.117 0.68,-0.171 1.019,-0.171 1.956,0 3.854,1.795 5.079,3.617" />
                  </g>
                </g>
                <g
                   id="g4561">
                  <g
                     id="g4497">
                    <g
                       id="g4489">
                      <g
                         transform="translate(551.5662,386.2653)"
                         id="g3227">
                        <path
                           inkscape:connector-curvature="0"
                           id="path3229"
                           style="fill:#858cad;fill-opacity:1;fill-rule:nonzero;stroke:none"
                           d="m 0,0 0,46.658 c 0,0 0,3.877 -3.877,3.877 l -85.766,0 c 0,0 -3.877,0 -3.877,-3.877 L -93.52,0 c 0,0 0,-3.877 3.877,-3.877 l 85.766,0 c 0,0 3.877,0 3.877,3.877 m -4.761,2.136 -83.726,0 0,44.318 83.726,0 0,-44.318 z" />
                      </g>
                      <g
                         transform="translate(522.8821,372.1601)"
                         id="g3235">
                        <path
                           inkscape:connector-curvature="0"
                           id="path3237"
                           style="fill:#858cad;fill-opacity:1;fill-rule:nonzero;stroke:none"
                           d="m 0,0 c -4.08,0 -7.434,3.108 -7.826,7.085 l -0.007,0 0,4.03 -18.141,0 0,-4.03 C -26.365,3.108 -29.719,0 -33.8,0 c -0.152,0 -0.304,0.005 -0.455,0.014 l 0,-2.094 17.355,0 17.355,0 0,2.094 C 0.304,0.005 0.153,0 0,0" />
                      </g>
                      <g
                         transform="translate(505.2142,387.0724)"
                         id="g3243">
                        <path
                           inkscape:connector-curvature="0"
                           id="path3245"
                           style="fill:#e3de8c;fill-opacity:1;fill-rule:nonzero;stroke:none"
                           d="m 0,0 c -1.033,0 -1.87,-0.837 -1.87,-1.87 0,-1.033 0.837,-1.871 1.87,-1.871 1.033,0 1.87,0.838 1.87,1.871 C 1.87,-0.837 1.033,0 0,0" />
                      </g>
                    </g>
                    <g
                       id="g4098"
                       transform="translate(-2.8325594e-6,0)">
                      <g
                         transform="translate(516.4845,429.3297)"
                         id="g3711">
                        <path
                           inkscape:connector-curvature="0"
                           id="path3713"
                           style="fill:#b591bd;fill-opacity:1;fill-rule:nonzero;stroke:none"
                           d="m 0,0 c -0.188,0 -0.287,-0.369 -0.261,-1.202 0.085,-2.815 -0.259,-5.109 -1.383,-7.42 1.246,-4.47 2.194,-9.349 1.762,-11.657 -0.224,-1.197 -1.019,-2.949 -2.187,-4.685 l 1.058,0 c -0.03,-2.084 -0.661,-4.023 -1.726,-5.651 4.114,1.612 7.638,7.268 8.148,9.995 C 6.301,-15.863 1.232,0.001 0,0" />
                      </g>
                      <g
                         transform="translate(495.7766,409.6276)"
                         id="g3715">
                        <path
                           inkscape:connector-curvature="0"
                           id="path3717"
                           style="fill:#858cad;fill-opacity:1;fill-rule:nonzero;stroke:none"
                           d="m 0,0 c -4.585,0 -8.307,-3.684 -8.373,-8.253 l 16.746,0 C 8.307,-3.684 4.585,0 0,0" />
                      </g>
                      <g
                         transform="translate(495.9257,406.3336)"
                         id="g3719">
                        <path
                           inkscape:connector-curvature="0"
                           id="path3721"
                           style="fill:#d6d6d6;fill-opacity:1;fill-rule:nonzero;stroke:none"
                           d="m 0,0 c 0,-0.469 -0.38,-0.849 -0.849,-0.849 -0.469,0 -0.849,0.38 -0.849,0.849 0,0.469 0.38,0.849 0.849,0.849 C -0.38,0.849 0,0.469 0,0" />
                      </g>
                      <g
                         transform="translate(486,402.2756)"
                         id="g3723">
                        <path
                           inkscape:connector-curvature="0"
                           id="path3725"
                           style="fill:#b591bd;fill-opacity:1;fill-rule:nonzero;stroke:none"
                           d="m 0,0 c 0,-2.133 1.714,-3.865 3.84,-3.895 l 0,7.791 C 1.714,3.865 0,2.133 0,0" />
                      </g>
                      <g
                         transform="translate(504.8618,393.9058)"
                         id="g3727">
                        <path
                           inkscape:connector-curvature="0"
                           id="path3729"
                           style="fill:#858cad;fill-opacity:1;fill-rule:nonzero;stroke:none"
                           d="m 0,0 c 5.81,0 10.528,4.669 10.611,10.459 l -21.223,0 C -10.528,4.669 -5.811,0 0,0" />
                      </g>
                      <g
                         transform="translate(511.1025,430.0087)"
                         id="g3731">
                        <path
                           inkscape:connector-curvature="0"
                           id="path3733"
                           style="fill:#b591bd;fill-opacity:1;fill-rule:nonzero;stroke:none"
                           d="m 0,0 c -0.191,0 -0.291,-0.375 -0.266,-1.221 0.183,-6.013 -1.563,-9.685 -8.533,-16.097 -1.287,-1.185 -2.137,-2.588 -2.586,-4.047 1.732,-0.925 3.099,-2.441 3.835,-4.278 l 1.482,0 c -0.478,2.679 0.37,5.696 2.793,7.925 3.594,3.307 5.776,5.872 7.013,8.417 C 2.375,-4.405 0.654,0 0,0" />
                      </g>
                      <path
                         inkscape:connector-curvature="0"
                         id="path3737"
                         style="fill:#80528c;fill-opacity:1;fill-rule:nonzero;stroke:none"
                         d="m 0,0 c -1.237,-2.545 -3.419,-5.11 -7.013,-8.417 -2.423,-2.229 -3.271,-5.246 -2.793,-7.926 l 9.381,0 c 1.168,1.737 1.963,3.489 2.187,4.686 C 2.193,-9.349 1.245,-4.47 0,0"
                         transform="translate(514.8408,420.708)" />
                      <g
                         transform="translate(514.4156,404.3652)"
                         id="g3743">
                        <path
                           inkscape:connector-curvature="0"
                           id="path3745"
                           style="fill:#96789e;fill-opacity:1;fill-rule:nonzero;stroke:none"
                           d="m 0,0 -9.381,0 -1.482,0 -4.035,0 c 0.537,-2.525 2.247,-4.717 4.919,-5.639 0.556,-0.191 1.113,-0.279 1.668,-0.279 3.2,0 6.306,2.936 8.311,5.918" />
                      </g>
                    </g>
                  </g>
                  <g
                     id="g4522">
                    <g
                       id="g3231"
                       transform="translate(579.5662,329.8125)">
                      <path
                         d="m 0,0 0,31.137 c 0,0 0,2.651 -2.65,2.651 l -15.9,0 c 0,0 -2.65,0 -2.65,-2.651 L -21.2,0 c 0,0 0,-2.65 2.65,-2.65 l 15.9,0 c 0,0 2.65,0 2.65,2.65 m -7.23,31.091 -6.379,0 0,1.058 6.379,0 0,-1.058 z m 4.518,-30.281 -15.854,0 0,28.794 15.854,0 0,-28.794 z"
                         style="fill:#858cad;fill-opacity:1;fill-rule:nonzero;stroke:none"
                         id="path3233"
                         inkscape:connector-curvature="0" />
                    </g>
                    <g
                       id="g3815"
                       transform="translate(572.2612,340.7399)">
                      <g
                         id="g4231"
                         transform="matrix(-1,0,0,1,-7.5225527,0)">
                        <g
                           transform="matrix(-1,0,0,1,-7.5225527,0)"
                           id="g4212">
                          <g
                             id="g3783"
                             transform="translate(0.747096,9.0149)">
                            <path
                               d="m 0,0 c -0.068,0 -0.104,-0.133 -0.094,-0.434 0.03,-1.016 -0.094,-1.845 -0.5,-2.679 0.45,-1.615 0.792,-3.377 0.637,-4.21 -0.081,-0.432 -0.368,-1.065 -0.79,-1.692 l 0.382,0 c -0.011,-0.752 -0.239,-1.453 -0.623,-2.04 1.485,0.582 2.758,2.624 2.942,3.609 C 2.275,-5.728 0.445,0 0,0"
                               style="fill:#b591bd;fill-opacity:1;fill-rule:nonzero;stroke:none"
                               id="path3785"
                               inkscape:connector-curvature="0" />
                          </g>
                          <g
                             id="g3787"
                             transform="translate(-6.7308,1.90018)">
                            <path
                               d="m 0,0 c -1.656,0 -3,-1.33 -3.023,-2.98 l 6.047,0 C 3,-1.33 1.656,0 0,0"
                               style="fill:#858cad;fill-opacity:1;fill-rule:nonzero;stroke:none"
                               id="path3789"
                               inkscape:connector-curvature="0" />
                          </g>
                          <g
                             id="g3791"
                             transform="translate(-6.677,0.71082)">
                            <path
                               d="m 0,0 c 0,-0.169 -0.137,-0.307 -0.307,-0.307 -0.169,0 -0.306,0.138 -0.306,0.307 0,0.169 0.137,0.306 0.306,0.306 C -0.137,0.306 0,0.169 0,0"
                               style="fill:#d6d6d6;fill-opacity:1;fill-rule:nonzero;stroke:none"
                               id="path3793"
                               inkscape:connector-curvature="0" />
                          </g>
                          <g
                             id="g3795"
                             transform="translate(-10.2612,-0.7547)">
                            <path
                               d="m 0,0 c 0,-0.77 0.619,-1.396 1.386,-1.407 l 0,2.814 C 0.619,1.396 0,0.77 0,0"
                               style="fill:#b591bd;fill-opacity:1;fill-rule:nonzero;stroke:none"
                               id="path3797"
                               inkscape:connector-curvature="0" />
                          </g>
                          <g
                             id="g3799"
                             transform="translate(-3.45,-3.7771)">
                            <path
                               d="m 0,0 c 2.098,0 3.802,1.686 3.832,3.777 l -7.664,0 C -3.802,1.686 -2.098,0 0,0"
                               style="fill:#858cad;fill-opacity:1;fill-rule:nonzero;stroke:none"
                               id="path3801"
                               inkscape:connector-curvature="0" />
                          </g>
                          <g
                             id="g3803"
                             transform="translate(-1.1964,9.2601)">
                            <path
                               d="m 0,0 c -0.069,0 -0.105,-0.135 -0.096,-0.441 0.066,-2.171 -0.564,-3.497 -3.081,-5.813 -0.465,-0.428 -0.772,-0.934 -0.934,-1.461 0.625,-0.334 1.119,-0.882 1.385,-1.545 l 0.535,0 c -0.173,0.967 0.133,2.057 1.008,2.862 1.298,1.194 2.086,2.12 2.533,3.039 C 0.857,-1.591 0.236,0 0,0"
                               style="fill:#b591bd;fill-opacity:1;fill-rule:nonzero;stroke:none"
                               id="path3805"
                               inkscape:connector-curvature="0" />
                          </g>
                          <g
                             id="g3807"
                             transform="translate(0.153504,5.90162)">
                            <path
                               d="m 0,0 c -0.447,-0.919 -1.235,-1.846 -2.532,-3.04 -0.875,-0.805 -1.182,-1.894 -1.009,-2.862 l 3.388,0 c 0.421,0.627 0.708,1.26 0.789,1.692 C 0.792,-3.376 0.45,-1.614 0,0"
                               style="fill:#80528c;fill-opacity:1;fill-rule:nonzero;stroke:none"
                               id="path3809"
                               inkscape:connector-curvature="0" />
                          </g>
                          <g
                             id="g3811"
                             transform="translate(-5.3076,1.54498)">
                            <path
                               d="m 0,0 c -0.158,-0.514 -0.178,-1.047 -0.072,-1.545 l 1.457,0 C 1.119,-0.881 0.625,-0.334 0,0"
                               style="fill:#96789e;fill-opacity:1;fill-rule:nonzero;stroke:none"
                               id="path3813"
                               inkscape:connector-curvature="0" />
                          </g>
                          <path
                             d="M 0,0 -3.388,0 -3.923,0 -5.38,0 c 0.194,-0.912 0.811,-1.703 1.777,-2.036 0.2,-0.069 0.401,-0.101 0.602,-0.101 1.155,0 2.277,1.06 3.001,2.137"
                             style="fill:#96789e;fill-opacity:1;fill-rule:nonzero;stroke:none"
                             id="path3817"
                             inkscape:connector-curvature="0" />
                        </g>
                      </g>
                    </g>
                  </g>
                </g>
              </g>
            </g>
          </g>
        </g>
      </g>
    </g>
  </g>
</svg>
