<?xml version="1.0" encoding="UTF-8" standalone="no"?>
<!-- Created with Inkscape (http://www.inkscape.org/) -->

<svg
   xmlns:dc="http://purl.org/dc/elements/1.1/"
   xmlns:cc="http://creativecommons.org/ns#"
   xmlns:rdf="http://www.w3.org/1999/02/22-rdf-syntax-ns#"
   xmlns:svg="http://www.w3.org/2000/svg"
   xmlns="http://www.w3.org/2000/svg"
   xmlns:sodipodi="http://sodipodi.sourceforge.net/DTD/sodipodi-0.dtd"
   xmlns:inkscape="http://www.inkscape.org/namespaces/inkscape"
   width="133.7795"
   height="87.750626"
   id="svg3563"
   version="1.1"
   inkscape:version="0.48.4 r9939"
   sodipodi:docname="New document 3">
  <defs
     id="defs3565">
    <clipPath
       id="clipPath3049">
      <path
         inkscape:connector-curvature="0"
         d="M 0,0 800,0 800,1800 0,1800 0,0 z"
         id="path3051" />
    </clipPath>
    <clipPath
       id="clipPath3073">
      <path
         inkscape:connector-curvature="0"
         d="M 0,0 800,0 800,1800 0,1800 0,0 z"
         id="path3075" />
    </clipPath>
  </defs>
  <sodipodi:namedview
     id="base"
     pagecolor="#ffffff"
     bordercolor="#666666"
     borderopacity="1.0"
     inkscape:pageopacity="0.0"
     inkscape:pageshadow="2"
     inkscape:zoom="0.35"
     inkscape:cx="66.889745"
     inkscape:cy="43.875342"
     inkscape:document-units="px"
     inkscape:current-layer="layer1"
     showgrid="false"
     fit-margin-top="0"
     fit-margin-left="0"
     fit-margin-right="0"
     fit-margin-bottom="0"
     inkscape:window-width="499"
     inkscape:window-height="442"
     inkscape:window-x="160"
     inkscape:window-y="160"
     inkscape:window-maximized="0" />
  <metadata
     id="metadata3568">
    <rdf:RDF>
      <cc:Work
         rdf:about="">
        <dc:format>image/svg+xml</dc:format>
        <dc:type
           rdf:resource="http://purl.org/dc/dcmitype/StillImage" />
        <dc:title></dc:title>
      </cc:Work>
    </rdf:RDF>
  </metadata>
  <g
     inkscape:label="Layer 1"
     inkscape:groupmode="layer"
     id="layer1"
     transform="translate(-308.11025,-488.4869)">
    <g
       transform="matrix(1.25,0,0,-1.25,-123.75037,2508.9869)"
       id="g3428">
      <path
         inkscape:connector-curvature="0"
         style="fill:#d6d6d6;fill-opacity:1;fill-rule:nonzero;stroke:none"
         id="path3011"
         d="m 411.215,1556.286 -19.846,0 0,32.544 19.846,0 0,-32.544 z" />
      <g
         id="g3013"
         transform="translate(413.1355,1586.5293)">
        <path
           inkscape:connector-curvature="0"
           style="fill:#d6d6d6;fill-opacity:1;fill-rule:nonzero;stroke:none"
           id="path3015"
           d="M 0,0 8.284,-28.883 0,-30.748 0,0 z" />
      </g>
      <g
         id="g3017"
         transform="translate(389.7979,1589.085)">
        <path
           inkscape:connector-curvature="0"
           style="fill:#d6d6d6;fill-opacity:1;fill-rule:nonzero;stroke:none"
           id="path3019"
           d="M 0,0 0.08,-9.804 -2.536,-0.719 0,0 z" />
      </g>
      <g
         id="g3021"
         transform="translate(386.0664,1588.2642)">
        <path
           inkscape:connector-curvature="0"
           style="fill:#d6d6d6;fill-opacity:1;fill-rule:nonzero;stroke:none"
           id="path3023"
           d="m 0,0 3.536,-11.323 0,-1.79 -6.67,11.247 L 0,0 z" />
      </g>
      <g
         id="g3025"
         transform="translate(389.4481,1573.2631)">
        <path
           inkscape:connector-curvature="0"
           style="fill:#d6d6d6;fill-opacity:1;fill-rule:nonzero;stroke:none"
           id="path3027"
           d="M 0,0 -7.687,12.986 -10.598,10.075 0,-0.896 0,0 z" />
      </g>
      <g
         id="g3029"
         transform="translate(378.0294,1582.2188)">
        <path
           inkscape:connector-curvature="0"
           style="fill:#d6d6d6;fill-opacity:1;fill-rule:nonzero;stroke:none"
           id="path3031"
           d="m 0,0 -2.538,-3.433 13.957,-8.881 0,1.418 L 0,0 z" />
      </g>
      <g
         id="g3033"
         transform="translate(374.8202,1577.5918)">
        <path
           inkscape:connector-curvature="0"
           style="fill:#d6d6d6;fill-opacity:1;fill-rule:nonzero;stroke:none"
           id="path3035"
           d="m 0,0 -1.418,-5.224 16.12,-4.777 0,1.493 L 0,0 z" />
      </g>
      <g
         id="g3037"
         transform="translate(372.8051,1571.1735)">
        <path
           inkscape:connector-curvature="0"
           style="fill:#d6d6d6;fill-opacity:1;fill-rule:nonzero;stroke:none"
           id="path3039"
           d="m 0,0 0,-6.493 16.867,0 0,2.239 L 0,0 z" />
      </g>
      <g
         id="g3041"
         transform="translate(389.5972,1563.5115)">
        <path
           inkscape:connector-curvature="0"
           style="fill:#d6d6d6;fill-opacity:1;fill-rule:nonzero;stroke:none"
           id="path3043"
           d="M 0,0 0,-3.533 -15.076,-8.16 -17.215,0 0,0 z" />
      </g>
      <g
         id="g3045">
        <g
           id="g3047"
           clip-path="url(#clipPath3049)">
          <g
             id="g3053"
             transform="translate(374.9694,1554.1233)">
            <path
               inkscape:connector-curvature="0"
               style="fill:#d6d6d6;fill-opacity:1;fill-rule:nonzero;stroke:none"
               id="path3055"
               d="m 0,0 4.553,-7.388 12.314,7.462 -2.239,0 c 0,0 0.075,4.031 0,4.255 L 0,0 z" />
          </g>
        </g>
      </g>
      <g
         id="g3057"
         transform="translate(411.4644,1595.1301)">
        <path
           inkscape:connector-curvature="0"
           style="fill:#b591bd;fill-opacity:1;fill-rule:nonzero;stroke:none"
           id="path3059"
           d="m 0,0 1.269,-4.702 -19.778,0 L 0,0 z" />
      </g>
      <g
         id="g3061"
         transform="translate(389.6471,1590.5283)">
        <path
           inkscape:connector-curvature="0"
           style="fill:#b591bd;fill-opacity:1;fill-rule:nonzero;stroke:none"
           id="path3063"
           d="M 0,0 18.409,10.846 21.395,6.07 0,0 z" />
      </g>
      <g
         id="g3065"
         transform="translate(383.5769,1588.3386)">
        <path
           inkscape:connector-curvature="0"
           style="fill:#b591bd;fill-opacity:1;fill-rule:nonzero;stroke:none"
           id="path3067"
           d="M 0,0 23.982,14.23 18.907,19.205 0,0 z" />
      </g>
      <g
         id="g3069">
        <g
           id="g3071"
           clip-path="url(#clipPath3073)">
          <g
             id="g3077"
             transform="translate(394.9212,1612.5195)">
            <path
               inkscape:connector-curvature="0"
               style="fill:#b591bd;fill-opacity:1;fill-rule:nonzero;stroke:none"
               id="path3079"
               d="m 0,0 6.966,-4.08 c 0,0 -22.39,-22.29 -22.489,-22.589 C -15.623,-26.967 0,0 0,0" />
          </g>
        </g>
      </g>
      <g
         id="g3081"
         transform="translate(393.6275,1613.0172)">
        <path
           inkscape:connector-curvature="0"
           style="fill:#b591bd;fill-opacity:1;fill-rule:nonzero;stroke:none"
           id="path3083"
           d="M 0,0 -8.558,2.487 -17.912,-31.246 0,0 z" />
      </g>
      <g
         id="g3085"
         transform="translate(383.8522,1616.2013)">
        <path
           inkscape:connector-curvature="0"
           style="fill:#b591bd;fill-opacity:1;fill-rule:nonzero;stroke:none"
           id="path3087"
           d="m 0,0 -10.946,-41.694 -0.1,41.595 L 0,0 z" />
      </g>
      <g
         id="g3089"
         transform="translate(359.3199,1612.619)">
        <path
           inkscape:connector-curvature="0"
           style="fill:#b591bd;fill-opacity:1;fill-rule:nonzero;stroke:none"
           id="path3091"
           d="m 0,0 12.14,3.781 0,-50.053 L 0,0 z" />
      </g>
      <g
         id="g3093"
         transform="translate(358.0265,1612.619)">
        <path
           inkscape:connector-curvature="0"
           style="fill:#b591bd;fill-opacity:1;fill-rule:nonzero;stroke:none"
           id="path3095"
           d="M 0,0 14.628,-54.73 -12.538,-7.563 0,0 z" />
      </g>
      <g
         id="g3097"
         transform="translate(412.8793,1593.2675)">
        <path
           inkscape:connector-curvature="0"
           style="fill:#d6d6d6;fill-opacity:1;fill-rule:nonzero;stroke:none"
           id="path3099"
           d="M 0,0 17.513,-30.947 9.652,-35.525 0,0 z" />
      </g>
      <g
         id="g3101"
         transform="translate(432.436,1562.2671)">
        <path
           inkscape:connector-curvature="0"
           style="fill:#d6d6d6;fill-opacity:1;fill-rule:nonzero;stroke:none"
           id="path3103"
           d="M 0,0 7.961,7.662 -21.991,37.416 0,0 z" />
      </g>
      <g
         id="g3105"
         transform="translate(441.2927,1570.9246)">
        <path
           inkscape:connector-curvature="0"
           style="fill:#d6d6d6;fill-opacity:1;fill-rule:nonzero;stroke:none"
           id="path3107"
           d="M 0,0 6.368,11.045 -37.117,36.619 0,0 z" />
      </g>
      <g
         id="g3109"
         transform="translate(395.7403,1554.111)">
        <path
           inkscape:connector-curvature="0"
           style="fill:#b591bd;fill-opacity:1;fill-rule:nonzero;stroke:none"
           id="path3111"
           d="M 0,0 15.076,0 1.194,-4.03 0,0 z" />
      </g>
      <g
         id="g3113"
         transform="translate(403.6281,1550.8271)">
        <path
           inkscape:connector-curvature="0"
           style="fill:#b591bd;fill-opacity:1;fill-rule:nonzero;stroke:none"
           id="path3115"
           d="M 0,0 16.867,5.373 2.09,-3.582 0,0 z" />
      </g>
      <g
         id="g3117"
         transform="translate(412.584,1549.9315)">
        <path
           inkscape:connector-curvature="0"
           style="fill:#b591bd;fill-opacity:1;fill-rule:nonzero;stroke:none"
           id="path3119"
           d="M 0,0 17.762,10.747 3.582,-3.732 0,0 z" />
      </g>
      <g
         id="g3121"
         transform="translate(423.1817,1551.7227)">
        <path
           inkscape:connector-curvature="0"
           style="fill:#b591bd;fill-opacity:1;fill-rule:nonzero;stroke:none"
           id="path3123"
           d="M 0,0 16.27,16.27 5.075,-2.985 0,0 z" />
      </g>
      <g
         id="g3125"
         transform="translate(397.7241,1612.4563)">
        <path
           inkscape:connector-curvature="0"
           style="fill:#d6d6d6;fill-opacity:1;fill-rule:nonzero;stroke:none"
           id="path3127"
           d="M 0,0 54.788,-14.959 50.841,-29.275 0,0 z" />
      </g>
    </g>
  </g>
</svg>
