<?xml version="1.0" encoding="UTF-8" standalone="no"?>
<!-- Created with Inkscape (http://www.inkscape.org/) -->

<svg
   xmlns:dc="http://purl.org/dc/elements/1.1/"
   xmlns:cc="http://creativecommons.org/ns#"
   xmlns:rdf="http://www.w3.org/1999/02/22-rdf-syntax-ns#"
   xmlns:svg="http://www.w3.org/2000/svg"
   xmlns="http://www.w3.org/2000/svg"
   xmlns:sodipodi="http://sodipodi.sourceforge.net/DTD/sodipodi-0.dtd"
   xmlns:inkscape="http://www.inkscape.org/namespaces/inkscape"
   width="548.74261"
   height="232.64667"
   id="svg3759"
   version="1.1"
   inkscape:version="0.48.4 r9939"
   sodipodi:docname="New document 5">
  <defs
     id="defs3761" />
  <sodipodi:namedview
     id="base"
     pagecolor="#ffffff"
     bordercolor="#666666"
     borderopacity="1.0"
     inkscape:pageopacity="0.0"
     inkscape:pageshadow="2"
     inkscape:zoom="0.35"
     inkscape:cx="274.37131"
     inkscape:cy="116.33166"
     inkscape:document-units="px"
     inkscape:current-layer="layer1"
     showgrid="false"
     fit-margin-top="0"
     fit-margin-left="0"
     fit-margin-right="0"
     fit-margin-bottom="0"
     inkscape:window-width="499"
     inkscape:window-height="442"
     inkscape:window-x="64"
     inkscape:window-y="64"
     inkscape:window-maximized="0" />
  <metadata
     id="metadata3764">
    <rdf:RDF>
      <cc:Work
         rdf:about="">
        <dc:format>image/svg+xml</dc:format>
        <dc:type
           rdf:resource="http://purl.org/dc/dcmitype/StillImage" />
        <dc:title></dc:title>
      </cc:Work>
    </rdf:RDF>
  </metadata>
  <g
     inkscape:label="Layer 1"
     inkscape:groupmode="layer"
     id="layer1"
     transform="translate(-100.62869,-416.04717)">
    <g
       transform="matrix(1.25,0,0,-1.25,649.37131,624.8543)"
       id="g3712">
      <g
         id="g3843"
         transform="translate(-604.9941,-986.0326)">
        <path
           inkscape:connector-curvature="0"
           style="fill:none;stroke:#858cad;stroke-width:3.69700003;stroke-linecap:butt;stroke-linejoin:miter;stroke-miterlimit:10;stroke-opacity:1;stroke-dasharray:none"
           id="path3139"
           transform="translate(266.11,1093.3774)"
           d="m 0,0 c 0,0 -2.86,33.623 25.981,50.054 30.242,17.23 55.45,3.327 72.085,-16.265" />
        <path
           inkscape:connector-curvature="0"
           style="fill:none;stroke:#858cad;stroke-width:4;stroke-linecap:butt;stroke-linejoin:miter;stroke-miterlimit:10;stroke-opacity:1;stroke-dasharray:none"
           id="path3159"
           transform="translate(461.25,1030)"
           d="m 0,0 c 0,0 7.438,-29.265 29,-46 16.75,-13 37.875,-14.797 50,-15 59.75,-1 54.15,18.033 54.15,18.033" />
        <path
           inkscape:connector-curvature="0"
           style="fill:#858cad;fill-opacity:1;fill-rule:nonzero;stroke:none"
           id="path3173"
           d="m 525.2,1043.1 52.8,0 0,76.4 -52.8,0 0,-76.4 z" />
        <path
           inkscape:connector-curvature="0"
           style="fill:#b591bd;fill-opacity:1;fill-rule:nonzero;stroke:none"
           id="path3175"
           d="m 166,1011.1 81.6,0 0,28.4 -81.6,0 0,-28.4 z" />
        <path
           inkscape:connector-curvature="0"
           style="fill:#858cad;fill-opacity:1;fill-rule:nonzero;stroke:none"
           id="path3177"
           d="m 255.6,1010.7 25.2,0 0,73.2 -25.2,0 0,-73.2 z" />
        <path
           inkscape:connector-curvature="0"
           style="fill:#858cad;fill-opacity:1;fill-rule:nonzero;stroke:none"
           id="path3179"
           d="m 339.2,1063.9 25.2,0 0,24 -25.2,0 0,-24 z" />
        <path
           inkscape:connector-curvature="0"
           style="fill:#b591bd;fill-opacity:1;fill-rule:nonzero;stroke:none"
           id="path3181"
           d="m 288.8,1010.7 75.6,0 0,45.2 -75.6,0 0,-45.2 z" />
        <path
           inkscape:connector-curvature="0"
           style="fill:#b591bd;fill-opacity:1;fill-rule:nonzero;stroke:none"
           id="path3183"
           d="m 372.4,1010.7 16.8,0 0,108.8 -16.8,0 0,-108.8 z" />
        <path
           inkscape:connector-curvature="0"
           style="fill:#b591bd;fill-opacity:1;fill-rule:nonzero;stroke:none"
           id="path3185"
           d="m 586,1010.7 16.8,0 0,60 -16.8,0 0,-60 z" />
        <path
           inkscape:connector-curvature="0"
           style="fill:#b591bd;fill-opacity:1;fill-rule:nonzero;stroke:none"
           id="path3187"
           d="m 397.2,1010.7 52.8,0 0,24.4 -52.8,0 0,-24.4 z" />
        <path
           inkscape:connector-curvature="0"
           style="fill:#b591bd;fill-opacity:1;fill-rule:nonzero;stroke:none"
           id="path3189"
           d="m 455.6,1080.7 27.65,0 0,38.8 -27.65,0 0,-38.8 z" />
        <path
           inkscape:connector-curvature="0"
           style="fill:#b591bd;fill-opacity:1;fill-rule:nonzero;stroke:none"
           id="path3191"
           d="m 397.2,1081.1 50.4,0 0,38.4 -50.4,0 0,-38.4 z" />
        <path
           inkscape:connector-curvature="0"
           style="fill:#b591bd;fill-opacity:1;fill-rule:nonzero;stroke:none"
           id="path3193"
           d="m 397.2,1043.1 120,0 0,29.6 -120,0 0,-29.6 z" />
      </g>
      <g
         id="g3141"
         transform="translate(-252.0589,139.764)">
        <path
           inkscape:connector-curvature="0"
           style="fill:#858cad;fill-opacity:1;fill-rule:nonzero;stroke:none"
           id="path3143"
           d="M 0,0 11.873,13.186 15.908,-3.878 0,0 z" />
      </g>
      <path
         inkscape:connector-curvature="0"
         style="fill:#858cad;fill-opacity:1;fill-rule:nonzero;stroke:none"
         id="path3147"
         d="M 0,0 -20.188,0 -9.939,15.967 0,0 z" />
    </g>
  </g>
</svg>
